<svg width="341" height="59" viewBox="0 0 341 59" fill="none" xmlns="http://www.w3.org/2000/svg">
<path d="M93.7199 38.5964V21.1431H89.8802V28.0496H82.7991V21.1431H78.9594V38.5964H82.7991V31.5901H89.8802V38.5964H93.7199Z" fill="white"/>
<path d="M118.307 38.5964L110.827 21.0184H107.287L99.8068 38.5964H103.721L105.317 34.6819H112.697L114.293 38.5964H118.307ZM111.326 31.2909H106.688L109.007 25.6311L111.326 31.2909Z" fill="white"/>
<path d="M128.415 38.5964V21.1431H124.576V38.5964H128.415Z" fill="white"/>
<path d="M151.262 38.5964L146.998 32.3631C148.112 31.9475 149.01 31.2992 149.691 30.4183C150.389 29.5207 150.738 28.3654 150.738 26.9525V26.9027C150.738 25.0908 150.156 23.678 148.993 22.664C147.846 21.65 146.234 21.1431 144.156 21.1431H136.177V38.5964H140.017V33.0113H143.034L146.774 38.5964H151.262ZM146.849 27.152C146.849 27.9 146.591 28.4984 146.076 28.9472C145.577 29.396 144.854 29.6204 143.907 29.6204H140.017V24.6088H143.832C144.779 24.6088 145.519 24.8166 146.051 25.2321C146.583 25.6477 146.849 26.271 146.849 27.1021V27.152Z" fill="white"/>
<path d="M170.212 33.4352V33.3853C170.212 32.6207 170.087 31.9641 169.838 31.4156C169.605 30.8671 169.248 30.3933 168.766 29.9944C168.3 29.5789 167.718 29.2298 167.02 28.9472C166.339 28.648 165.557 28.382 164.677 28.1493C163.929 27.9499 163.305 27.7753 162.807 27.6257C162.324 27.4761 161.942 27.3182 161.66 27.152C161.377 26.9858 161.178 26.8029 161.061 26.6035C160.961 26.3874 160.912 26.1381 160.912 25.8555V25.8056C160.912 25.3734 161.094 25.016 161.46 24.7335C161.842 24.4343 162.408 24.2847 163.156 24.2847C163.904 24.2847 164.652 24.4426 165.4 24.7584C166.148 25.0576 166.912 25.4732 167.693 26.0051L169.688 23.1128C168.791 22.398 167.801 21.8495 166.721 21.4672C165.657 21.0849 164.485 20.8937 163.205 20.8937C162.308 20.8937 161.485 21.0184 160.737 21.2677C159.989 21.5171 159.341 21.8744 158.792 22.3399C158.26 22.8053 157.845 23.3621 157.546 24.0104C157.246 24.642 157.097 25.3568 157.097 26.1547V26.2045C157.097 27.0689 157.23 27.792 157.496 28.3737C157.778 28.9555 158.169 29.4459 158.668 29.8448C159.166 30.2271 159.773 30.5512 160.488 30.8172C161.202 31.0832 162 31.3242 162.881 31.5403C163.613 31.7231 164.203 31.8976 164.652 32.0639C165.117 32.2301 165.474 32.3963 165.724 32.5625C165.99 32.7288 166.164 32.9116 166.247 33.1111C166.347 33.2939 166.397 33.51 166.397 33.7593V33.8092C166.397 34.3245 166.173 34.7317 165.724 35.0309C165.292 35.3135 164.677 35.4548 163.879 35.4548C162.881 35.4548 161.959 35.2637 161.111 34.8813C160.28 34.499 159.465 33.9837 158.668 33.3355L156.399 36.0532C157.446 37.0007 158.609 37.7071 159.889 38.1725C161.169 38.6213 162.474 38.8457 163.804 38.8457C164.751 38.8457 165.616 38.7294 166.397 38.4967C167.178 38.2473 167.851 37.8983 168.417 37.4495C168.982 36.9841 169.422 36.4189 169.738 35.754C170.054 35.0725 170.212 34.2996 170.212 33.4352Z" fill="white"/>
<path d="M190.159 24.6836V21.1431H175.697V24.6836H181.008V38.5964H184.848V24.6836H190.159Z" fill="white"/>
<path d="M214.289 29.8697V29.8199C214.289 28.5732 214.056 27.4096 213.591 26.3292C213.142 25.2321 212.502 24.2847 211.671 23.4868C210.857 22.6723 209.884 22.0324 208.754 21.5669C207.624 21.0849 206.385 20.8439 205.039 20.8439C203.693 20.8439 202.446 21.0849 201.299 21.5669C200.169 22.0324 199.188 22.6806 198.357 23.5117C197.542 24.3262 196.902 25.282 196.437 26.3791C195.971 27.4595 195.739 28.6231 195.739 29.8697V29.9196C195.739 31.1663 195.963 32.3381 196.412 33.4352C196.877 34.5156 197.517 35.4631 198.332 36.2776C199.163 37.0755 200.144 37.7154 201.274 38.1975C202.404 38.6629 203.643 38.8956 204.989 38.8956C206.335 38.8956 207.574 38.6629 208.704 38.1975C209.851 37.7154 210.832 37.0672 211.646 36.2527C212.477 35.4216 213.126 34.4658 213.591 33.3853C214.056 32.2883 214.289 31.1164 214.289 29.8697ZM210.275 29.9196C210.275 30.6676 210.142 31.3741 209.876 32.0389C209.627 32.6872 209.269 33.2607 208.804 33.7593C208.355 34.258 207.807 34.6486 207.158 34.9312C206.51 35.2138 205.804 35.3551 205.039 35.3551C204.258 35.3551 203.543 35.2138 202.895 34.9312C202.263 34.632 201.706 34.2331 201.224 33.7344C200.759 33.2357 200.393 32.654 200.127 31.9891C199.878 31.3242 199.753 30.6177 199.753 29.8697V29.8199C199.753 29.0719 199.878 28.3737 200.127 27.7255C200.393 27.0606 200.75 26.4788 201.199 25.9801C201.665 25.4815 202.213 25.0908 202.845 24.8083C203.493 24.5257 204.208 24.3844 204.989 24.3844C205.754 24.3844 206.46 24.534 207.108 24.8332C207.757 25.1158 208.313 25.5064 208.779 26.0051C209.261 26.5037 209.627 27.0855 209.876 27.7504C210.142 28.4153 210.275 29.1217 210.275 29.8697V29.9196Z" fill="white"/>
<path d="M236.18 38.5964L231.916 32.3631C233.03 31.9475 233.928 31.2992 234.609 30.4183C235.307 29.5207 235.656 28.3654 235.656 26.9525V26.9027C235.656 25.0908 235.075 23.678 233.911 22.664C232.764 21.65 231.152 21.1431 229.074 21.1431H221.095V38.5964H224.935V33.0113H227.952L231.692 38.5964H236.18ZM231.767 27.152C231.767 27.9 231.509 28.4984 230.994 28.9472C230.495 29.396 229.772 29.6204 228.825 29.6204H224.935V24.6088H228.75C229.697 24.6088 230.437 24.8166 230.969 25.2321C231.501 25.6477 231.767 26.271 231.767 27.1021V27.152Z" fill="white"/>
<path d="M257.972 21.1431H253.609L249.37 28.1493L245.206 21.1431H240.718L247.425 31.7148V38.5964H251.265V31.64L257.972 21.1431Z" fill="white"/>
</svg>
